<?xml version="1.0" encoding="UTF-8" standalone="no"?>
<!-- Created with Inkscape (http://www.inkscape.org/) -->

<svg
   width="96.000008mm"
   height="96mm"
   viewBox="0 0 96.000005 96.000001"
   version="1.1"
   id="svg1"
   sodipodi:docname="csanalyzer_v2.svg"
   xml:space="preserve"
   inkscape:version="1.4 (86a8ad7, 2024-10-11)"
   xmlns:inkscape="http://www.inkscape.org/namespaces/inkscape"
   xmlns:sodipodi="http://sodipodi.sourceforge.net/DTD/sodipodi-0.dtd"
   xmlns="http://www.w3.org/2000/svg"
   xmlns:svg="http://www.w3.org/2000/svg"><sodipodi:namedview
     id="namedview1"
     pagecolor="#0d0d0d"
     bordercolor="#000000"
     borderopacity="0.25"
     inkscape:showpageshadow="2"
     inkscape:pageopacity="0.0"
     inkscape:pagecheckerboard="0"
     inkscape:deskcolor="#d1d1d1"
     inkscape:document-units="mm"
     inkscape:zoom="1.6672475"
     inkscape:cx="118.75861"
     inkscape:cy="160.44409"
     inkscape:window-width="1920"
     inkscape:window-height="1027"
     inkscape:window-x="1912"
     inkscape:window-y="-8"
     inkscape:window-maximized="1"
     inkscape:current-layer="layer4"
     showguides="true"><sodipodi:guide
       position="47.999998,32.71125"
       orientation="-1,0"
       id="guide1"
       inkscape:locked="false"
       inkscape:label=""
       inkscape:color="rgb(0,134,229)" /><sodipodi:guide
       position="34.786367,47.999998"
       orientation="0,1"
       id="guide2"
       inkscape:locked="false"
       inkscape:label=""
       inkscape:color="rgb(0,134,229)" /><inkscape:page
       x="0"
       y="0"
       width="96"
       height="96"
       id="page2"
       margin="0"
       bleed="0" /></sodipodi:namedview><defs
     id="defs1" /><g
     id="layer3"
     transform="translate(-40.852146,-108.95668)"
     style="display:none"><path
       id="rect7"
       style="fill:#2ace66;fill-opacity:1;stroke-width:0.630803;stroke-linecap:square;stroke-linejoin:bevel"
       d="m 86.805621,108.95667 c -1.27031,0 -2.54061,0.487 -3.51399,1.46038 l -40.979413,40.97941 c -1.94676,1.94676 -1.946764,5.08123 0,7.02799 l 6.867798,6.86832 c 1.946757,1.94676 5.081233,1.94677 7.027994,0 l 30.729391,-30.72888 30.729389,30.72888 c 1.94676,1.94676 5.08124,1.94676 7.028,0 l 6.86831,-6.86832 c 1.94677,-1.94676 1.94676,-5.08124 0,-7.02799 L 90.583171,110.41705 c -1.00706,-1.00706 -2.33186,-1.48908 -3.64577,-1.45418 -0.0439,-10e-4 -0.0878,-0.006 -0.13178,-0.006 z m 0.0512,37.14916 v 5.1e-4 c -0.77668,0 -1.55305,0.29732 -2.14819,0.89245 l -25.055313,25.05532 c -1.190265,1.19027 -1.190266,3.10663 0,4.2969 l 4.199227,4.19922 c 1.190266,1.19027 3.106631,1.19027 4.296895,0 l 18.788001,-18.788 18.787999,18.788 c 1.19026,1.19027 3.10663,1.19027 4.2969,0 l 4.19922,-4.19922 c 1.19026,-1.19027 1.19026,-3.10663 0,-4.2969 L 89.166761,146.99879 c -0.61574,-0.61575 -1.42597,-0.91013 -2.22932,-0.88883 -0.0269,-0.001 -0.0537,-0.004 -0.0806,-0.004 z m 0.0362,25.34832 c -0.42898,1e-5 -0.85829,0.16428 -1.187,0.49299 l -1.60094,1.60094 c -0.15218,0.11847 -0.30956,0.2274 -0.44958,0.36742 l -9.845397,9.84539 c -0.140026,0.14002 -0.248962,0.29742 -0.36742,0.44959 l -1.575614,1.57561 c -0.657429,0.65743 -0.657433,1.71607 0,2.3735 l 1.247469,1.24695 c 0.193838,0.32478 0.415354,0.63756 0.695565,0.91777 l 9.845397,9.8454 c 1.81812,1.81812 4.74581,1.81812 6.56394,0 l 9.845389,-9.8454 c 0.28021,-0.28021 0.50173,-0.59299 0.69557,-0.91777 l 1.24747,-1.24695 c 0.65743,-0.65743 0.65742,-1.71608 0,-2.3735 l -1.5751,-1.5751 c -0.11858,-0.15238 -0.22774,-0.3099 -0.36794,-0.4501 l -9.845389,-9.84539 c -0.14083,-0.14082 -0.29906,-0.25048 -0.45217,-0.36949 l -1.59887,-1.59887 c -0.34008,-0.34007 -0.78725,-0.50272 -1.23093,-0.49092 -0.0148,0 -0.0296,-0.002 -0.0444,-0.002 z" /></g><g
     inkscape:groupmode="layer"
     id="layer2"
     inkscape:label="Layer 1"
     style="display:none"><circle
       style="fill:none;stroke:#2ace66;stroke-width:3.44815;stroke-linecap:square;stroke-linejoin:round;stroke-dasharray:none;stroke-opacity:1"
       id="path3"
       cx="13.209584"
       cy="72.040314"
       r="7.1296687" /><circle
       style="fill:none;stroke:#2ace66;stroke-width:3.44815;stroke-linecap:square;stroke-linejoin:round;stroke-dasharray:none;stroke-opacity:1"
       id="circle3"
       cx="32.956913"
       cy="33.985565"
       r="7.1296687" /><circle
       style="fill:none;stroke:#2ace66;stroke-width:3.44815;stroke-linecap:square;stroke-linejoin:round;stroke-dasharray:none;stroke-opacity:1"
       id="circle4"
       cx="57.840755"
       cy="57.600227"
       r="7.1296687" /><circle
       style="fill:none;stroke:#2ace66;stroke-width:3.44815;stroke-linecap:square;stroke-linejoin:round;stroke-dasharray:none;stroke-opacity:1"
       id="circle5"
       cx="78.622612"
       cy="21.84918"
       r="7.1296687" /><path
       style="fill:none;stroke:#2ace66;stroke-width:5.5711;stroke-linecap:square;stroke-linejoin:round;stroke-dasharray:none;stroke-opacity:1"
       d="M 17.837868,63.709409 29.151443,41.699367"
       id="path11"
       sodipodi:nodetypes="cc" /><path
       style="fill:none;stroke:#2ace66;stroke-width:5.5711;stroke-linecap:square;stroke-linejoin:round;stroke-dasharray:none;stroke-opacity:1"
       d="M 40.053616,38.819546 51.314165,51.420353"
       id="path12"
       sodipodi:nodetypes="cc" /><path
       style="fill:none;stroke:#2ace66;stroke-width:5.5711;stroke-linecap:square;stroke-linejoin:round;stroke-dasharray:none;stroke-opacity:1"
       d="M 62.804108,49.551365 74.40574,29.768687"
       id="path13"
       sodipodi:nodetypes="cc" /><path
       id="path14"
       style="fill:#2ace66;stroke-width:1.29621;stroke-linecap:square;stroke-linejoin:round"
       d="M 45.671473,4.977119 C 45.06133,4.989459 44.451047,5.014999 43.842157,5.054149 34.099915,5.680512 24.578474,9.737472 17.235006,17.097768 5.0351233,29.325611 1.9773138,47.5407 8.5995053,62.772416 a 10.369665,10.369665 0 0 1 4.6097977,-1.101877 10.369665,10.369665 0 0 1 1.028195,0.05158 C 7.7999543,48.306776 10.28157,31.954094 21.178989,21.031703 33.915035,8.266469 54.100923,6.966826 68.366793,17.996016 l 0.568019,0.43941 a 10.369665,10.369665 0 0 1 3.179034,-4.583674 L 71.774239,13.588506 C 64.062788,7.626651 54.823632,4.792058 45.671473,4.977119 Z m 38.940138,25.359919 a 10.369665,10.369665 0 0 1 -5.267576,1.824629 c 7.1107,16.535194 0.85686,35.731024 -14.640565,44.90099 -13.321378,7.882382 -29.844129,6.205216 -41.254413,-3.432899 a 10.369665,10.369665 0 0 1 -2.412073,5.21064 C 34.164964,89.10191 52.634215,90.67814 67.541558,81.85733 85.296212,71.351739 92.557752,49.321603 84.611611,30.337038 Z" /></g><g
     inkscape:groupmode="layer"
     id="layer4"
     inkscape:label="Layer 2"><path
       style="display:none;fill:none;fill-opacity:1;stroke:#e6e6e6;stroke-width:1.39076;stroke-linecap:round;stroke-linejoin:round;stroke-dasharray:none;stroke-opacity:1"
       d="M 0.79665412,95.25861 95.258608,0.79665409"
       id="path1"
       sodipodi:insensitive="true" /><path
       style="display:none;fill:none;fill-opacity:1;stroke:#e6e6e6;stroke-width:1.39076;stroke-linecap:round;stroke-linejoin:round;stroke-dasharray:none;stroke-opacity:1"
       d="M 95.258609,95.258609 0.79665311,0.79665511"
       id="path2"
       sodipodi:insensitive="true" /><path
       id="ellipse19"
       style="display:none;fill:#2ace66;fill-opacity:1;stroke:none;stroke-width:8.09149;stroke-linecap:round;stroke-linejoin:round;stroke-dasharray:none;stroke-opacity:1"
       d="M 48.000171,7.5370076 A 40.44701,40.463116 0 0 0 7.5530273,48.000171 40.44701,40.463116 0 0 0 48.000171,88.463334 40.44701,40.463116 0 0 0 88.446798,48.000171 40.44701,40.463116 0 0 0 48.000171,7.5370076 Z m 0,7.2977454 A 33.152107,33.16531 0 0 1 81.152153,48.000171 33.152107,33.16531 0 0 1 48.000171,81.165072 33.152107,33.16531 0 0 1 14.847673,48.000171 33.152107,33.16531 0 0 1 48.000171,14.834753 Z" /><ellipse
       cx="48"
       cy="48"
       id="circle1"
       style="display:none;fill:#c8ab37;fill-opacity:1;stroke:#80ff80;stroke-width:7.36101;stroke-linecap:round;stroke-linejoin:round;stroke-dasharray:none;stroke-opacity:1"
       rx="36.795513"
       ry="36.810169" /><path
       style="display:none;fill:none;fill-opacity:1;stroke:#2ace66;stroke-width:7;stroke-linecap:round;stroke-linejoin:round;stroke-dasharray:none;stroke-opacity:1"
       d="m 18.705376,49.844787 8.428444,-8.428444 6.762811,-6.762811 6.608639,6.608639 20.055042,20.055042 17.547207,-17.547207"
       id="path15"
       sodipodi:nodetypes="cccccc" /><g
       id="g23"
       transform="matrix(1.1123553,-0.35476135,0.35476135,1.1123553,-22.226077,11.642393)"><path
         id="path19"
         style="display:inline;fill:#2ace66;fill-opacity:1;stroke:none;stroke-width:8.09149;stroke-linecap:round;stroke-linejoin:round;stroke-dasharray:none;stroke-opacity:1"
         inkscape:label="kolko"
         d="M 48.000171,7.5370076 A 40.44701,40.463116 0 0 0 7.856368,43.76167 a 13.189,13.189 0 0 1 4.395597,-0.788066 13.189,13.189 0 0 1 2.96416,0.341582 33.152107,33.16531 0 0 1 32.784046,-28.480433 33.152107,33.16531 0 0 1 26.149308,12.793018 13.18923,13.18923 0 0 1 6.641455,-3.29954 A 40.44701,40.463116 0 0 0 48.000171,7.5370076 Z M 88.413725,49.346859 A 13.18923,13.18923 0 0 1 83.091052,50.48064 13.18923,13.18923 0 0 1 80.971802,50.293571 33.152107,33.16531 0 0 1 48.000171,81.165072 33.152107,33.16531 0 0 1 20.515544,66.4099 13.189,13.189 0 0 1 13.633793,69.253137 40.44701,40.463116 0 0 0 48.000171,88.463334 40.44701,40.463116 0 0 0 88.413725,49.346859 Z" /><circle
         style="display:inline;fill:none;fill-opacity:1;stroke:#2ace66;stroke-width:5.5;stroke-linecap:square;stroke-linejoin:round;stroke-dasharray:none;stroke-opacity:1"
         id="circle16"
         cx="83.620277"
         cy="37.291252"
         r="7.1296687" /><circle
         style="display:inline;fill:none;fill-opacity:1;stroke:#2ace66;stroke-width:5.8526;stroke-linecap:square;stroke-linejoin:round;stroke-dasharray:none;stroke-opacity:1"
         id="circle19"
         cx="12.935402"
         cy="55.862244"
         r="6.9532013" /><circle
         style="display:inline;fill:none;fill-opacity:1;stroke:#2ace66;stroke-width:5.5;stroke-linecap:square;stroke-linejoin:round;stroke-dasharray:none;stroke-opacity:1"
         id="circle20"
         cx="33.948837"
         cy="35.386917"
         r="7.1296687" /><circle
         style="display:inline;fill:none;fill-opacity:1;stroke:#2ace66;stroke-width:5.5;stroke-linecap:square;stroke-linejoin:round;stroke-dasharray:none;stroke-opacity:1"
         id="circle21"
         cx="60.609547"
         cy="60.619373"
         r="7.1296687" /><rect
         style="fill:#2ace66;fill-opacity:1;stroke:none;stroke-width:5.5;stroke-linecap:round;stroke-linejoin:round;stroke-dasharray:none;stroke-opacity:1"
         id="rect21"
         width="7.0000038"
         height="17.902651"
         x="44.954601"
         y="6.5841618"
         transform="rotate(45)" /><rect
         style="fill:#2ace66;fill-opacity:1;stroke:none;stroke-width:5.5;stroke-linecap:round;stroke-linejoin:round;stroke-dasharray:none;stroke-opacity:1"
         id="rect22"
         width="7.0000038"
         height="17.902651"
         x="82.658539"
         y="-25.733498"
         transform="rotate(45)" /><rect
         style="fill:#2ace66;fill-opacity:1;stroke:none;stroke-width:5.5;stroke-linecap:round;stroke-linejoin:round;stroke-dasharray:none;stroke-opacity:1"
         id="rect23"
         width="7.0000029"
         height="24.186607"
         x="-2.9450967"
         y="-79.455994"
         transform="rotate(135)" /></g></g></svg>
